Coordinates
version=1
nRows=6
nColumns=63
inDegrees=yes

Units are S.I. units (second, meters, Newtons, ...)
If the header above contains a line with 'inDegrees', this indicates whether rotational values are in degrees (yes) or radians (no).

endheader
time	pelvis_tilt	pelvis_list	pelvis_rotation	pelvis_tx	pelvis_ty	pelvis_tz	hip_flexion_r	hip_adduction_r	hip_rotation_r	knee_angle_r	knee_angle_r_beta	ankle_angle_r	subtalar_angle_r	mtp_angle_r	hip_flexion_l	hip_adduction_l	hip_rotation_l	knee_angle_l	knee_angle_l_beta	ankle_angle_l	subtalar_angle_l	mtp_angle_l	L5_S1_Flex_Ext	L5_S1_Lat_Bending	L5_S1_axial_rotation	L4_L5_Flex_Ext	L4_L5_Lat_Bending	L4_L5_axial_rotation	L3_L4_Flex_Ext	L3_L4_Lat_Bending	L3_L4_axial_rotation	L2_L3_Flex_Ext	L2_L3_Lat_Bending	L2_L3_axial_rotation	L1_L2_Flex_Ext	L1_L2_Lat_Bending	L1_L2_axial_rotation	L1_T12_Flex_Ext	L1_T12_Lat_Bending	L1_T12_axial_rotation	Abs_r3	Abs_r2	Abs_r1	Abs_t1	Abs_t2	neck_flexion	neck_bending	neck_rotation	arm_flex_r	arm_add_r	arm_rot_r	elbow_flex_r	pro_sup_r	wrist_flex_r	wrist_dev_r	arm_flex_l	arm_add_l	arm_rot_l	elbow_flex_l	pro_sup_l	wrist_flex_l	wrist_dev_l
2.964286	4.699818	-1.636334	97.811720	0.115095	0.996062	0.140584	4.248974	1.686145	-7.371413	7.265942	0.126815	18.503914	1.730067	0.000000	9.752012	-2.912548	-6.943072	19.882925	0.347023	22.956791	11.518764	0.000000	0.473077	0.188862	-0.473120	0.878551	0.251187	-0.502690	0.777218	0.459199	-0.502690	0.540680	0.459199	-0.413980	0.439299	0.385128	-0.384410	0.270316	0.292547	-0.354840	3.379141	2.136446	-2.631351	0.000000	0.000000	6.790670	5.245141	-15.878568	9.719130	-8.448253	51.428211	46.110655	66.940081	13.364535	5.072440	16.728170	-9.801453	70.643800	47.195510	64.592062	3.335491	-4.242319
2.982143	4.618190	-1.623442	97.765742	0.115231	0.996070	0.140561	4.296613	1.602332	-6.959401	7.422415	0.129546	18.619463	1.298781	0.000000	9.681194	-2.837411	-7.075524	19.811181	0.345770	22.965061	11.579868	0.000000	0.471654	0.167466	-0.462563	0.875909	0.222730	-0.491474	0.774880	0.407178	-0.491474	0.539053	0.407178	-0.404743	0.437978	0.341497	-0.375833	0.269503	0.259405	-0.346923	3.368977	1.894413	-2.572639	0.000000	0.000000	6.842832	5.149394	-18.452668	10.124787	-8.472244	52.558417	45.887357	65.176109	13.154358	4.901514	17.000572	-9.928046	70.714252	46.927172	65.496915	4.946449	-3.901586
3.000000	4.537640	-1.609066	97.711658	0.115399	0.996075	0.140659	4.376943	1.520637	-6.504882	7.622482	0.133037	18.750887	0.792106	0.000000	9.633708	-2.778874	-7.317885	19.766774	0.344995	23.011951	11.732484	0.000000	0.464754	0.148462	-0.461064	0.863095	0.197455	-0.489881	0.763544	0.360971	-0.489881	0.531167	0.360971	-0.403431	0.431571	0.302744	-0.374615	0.265560	0.229968	-0.345798	3.319691	1.679436	-2.564302	0.000000	0.000000	6.874727	5.065814	-20.766114	10.568614	-8.467300	53.705866	45.671638	62.913202	12.853362	4.981783	17.274588	-10.061769	70.778282	46.636640	65.908169	6.515895	-3.588197
3.017857	4.477423	-1.595628	97.666374	0.115563	0.996036	0.140786	4.479152	1.461212	-6.022897	7.849107	0.136993	18.914469	0.241481	0.000000	9.609546	-2.747745	-7.596553	19.744814	0.344612	23.136543	11.937434	0.000000	0.454237	0.134673	-0.468648	0.843564	0.179115	-0.497938	0.746267	0.327443	-0.497938	0.519148	0.327443	-0.410067	0.421805	0.274624	-0.380776	0.259551	0.208608	-0.351486	3.244572	1.523444	-2.606478	0.000000	0.000000	6.935316	4.985692	-22.740526	10.981120	-8.467533	54.872400	45.544527	59.443289	12.384160	5.404696	17.492284	-10.184348	70.726048	46.338558	66.039761	8.020667	-3.388978
3.035714	4.443696	-1.586136	97.615794	0.115734	0.995964	0.140963	4.619594	1.421244	-5.633505	8.126147	0.141828	19.137558	-0.170896	0.000000	9.612762	-2.757522	-7.952115	19.753244	0.344759	23.328984	12.229340	0.000000	0.441170	0.127614	-0.483510	0.819297	0.169726	-0.513729	0.724798	0.310280	-0.513729	0.504213	0.310280	-0.423071	0.409671	0.260230	-0.392852	0.252085	0.197674	-0.362632	3.151233	1.443591	-2.689137	0.000000	0.000000	7.023364	4.894758	-24.310469	11.348228	-8.439451	55.831160	45.429810	56.561325	11.963599	5.804108	17.651752	-10.286362	70.593385	46.052281	65.824765	9.274563	-3.243157
3.053571	4.430337	-1.580901	97.557554	0.115936	0.995867	0.141184	4.792673	1.402100	-5.275476	8.441754	0.147336	19.396341	-0.537941	0.000000	9.637942	-2.800210	-8.363067	19.785800	0.345327	23.567508	12.584313	0.000000	0.426899	0.126232	-0.503546	0.792794	0.167889	-0.535018	0.701353	0.306921	-0.535018	0.487903	0.306921	-0.440603	0.396419	0.257413	-0.409131	0.243930	0.195534	-0.377660	3.049298	1.427966	-2.800572	0.000000	0.000000	7.125695	4.830650	-25.411020	11.666102	-8.377631	56.618316	45.326147	53.870041	11.512921	6.330403	17.779176	-10.374165	70.462832	45.792365	65.098695	10.253118	-3.140999
